<svg width="50" height="50" viewBox="0 0 50 50" fill="none" xmlns="http://www.w3.org/2000/svg">
<path d="M35.675 24.9C35.625 22.375 34.75 20.075 33.25 18.25C33.025 18.55 31.225 20.875 27.325 22.45C27.5747 22.9494 27.7994 23.4737 28.0241 23.998L28.025 24C28.0626 24.0877 28.1002 24.1817 28.1377 24.2757C28.1752 24.3692 28.2126 24.4627 28.25 24.55C31.8 24.125 35.325 24.825 35.675 24.9Z" fill="white"/>
<path d="M32.075 17.025C30.2 15.375 27.7 14.35 25 14.35C24.125 14.35 23.3 14.45 22.5 14.625C22.5334 14.6735 22.5914 14.7549 22.6708 14.8661C23.2454 15.6711 24.9374 18.0414 26.475 20.875C30.275 19.45 31.875 17.3 32.075 17.025Z" fill="white"/>
<path d="M24.4 21.525C22.625 18.375 20.725 15.725 20.45 15.35C17.475 16.75 15.25 19.5 14.525 22.825L14.5509 22.825C15.1417 22.8254 19.4804 22.8287 24.4 21.525Z" fill="white"/>
<path d="M14.325 24.7V25.025C14.325 27.75 15.35 30.25 17.075 32.15L17.0924 32.1221C17.4381 31.5652 20.3554 26.866 25.75 25.125C25.8164 25.1029 25.8828 25.0856 25.947 25.069C26.0279 25.048 26.1054 25.0279 26.175 25C25.9 24.375 25.6 23.775 25.3 23.175C19.975 24.775 14.775 24.725 14.325 24.7Z" fill="white"/>
<path d="M18.45 33.425C20.25 34.825 22.525 35.675 25 35.675C26.475 35.675 27.9 35.375 29.175 34.825C29.025 33.875 28.4 30.625 26.9 26.725C26.8826 26.725 26.8652 26.725 26.8479 26.7334C26.8403 26.7371 26.8326 26.7424 26.825 26.75C20.8 28.85 18.65 33.025 18.45 33.425Z" fill="white"/>
<path d="M28.875 26.25C30.275 30.075 30.85 33.2 30.95 33.85C33.35 32.25 35.05 29.675 35.525 26.7C35.5079 26.6954 35.4855 26.6893 35.458 26.6817C34.8825 26.5231 32.0723 25.7489 28.875 26.25Z" fill="white"/>
<path fill-rule="evenodd" clip-rule="evenodd" d="M0 0H50V50H0V0ZM12.5 25C12.5 18.1 18.1 12.5 25 12.5C31.875 12.5 37.5 18.1 37.5 25C37.5 31.9 31.875 37.5 25 37.5C18.1 37.5 12.5 31.9 12.5 25Z" fill="white"/>
</svg>
