<svg width="50" height="50" viewBox="0 0 50 50" fill="none" xmlns="http://www.w3.org/2000/svg">
<path d="M24.2524 28.1453V21.8549H21.0055C19.2684 21.8549 17.8603 23.263 17.8603 25.0001C17.8603 26.7305 19.2577 28.1346 20.9856 28.1453L21.0055 28.1453H24.2524Z" fill="white"/>
<path d="M17.8603 32.8226C17.8603 31.0922 19.2577 29.6882 20.9856 29.6774L21.0055 29.6775H24.2524V32.7718C24.2524 34.5306 22.8023 35.9679 21.0308 35.9679C19.2873 35.9679 17.8603 34.5533 17.8603 32.8226Z" fill="white"/>
<path d="M28.9297 28.1454C27.1927 28.1454 25.7845 26.7372 25.7845 25.0001C25.7845 23.263 27.1927 21.8549 28.9297 21.8549H29.0313C30.7684 21.8549 32.1766 23.263 32.1766 25.0001C32.1766 26.7372 30.7684 28.1454 29.0313 28.1454H28.9297Z" fill="white"/>
<path d="M29.0313 20.3226H25.7845V14.0321H29.0313C30.7684 14.0321 32.1766 15.4403 32.1766 17.1774C32.1766 18.9144 30.7684 20.3226 29.0313 20.3226Z" fill="white"/>
<path d="M21.0055 14.0321H24.2524V20.3226H21.0055C19.2684 20.3226 17.8603 18.9144 17.8603 17.1774C17.8603 15.4403 19.2684 14.0321 21.0055 14.0321Z" fill="white"/>
<path fill-rule="evenodd" clip-rule="evenodd" d="M0 0H50V50H0V0ZM21.0055 12.5C18.4223 12.5 16.3281 14.5941 16.3281 17.1774C16.3281 18.8131 17.1678 20.2527 18.4396 21.0887C17.1678 21.9247 16.3281 23.3644 16.3281 25.0001C16.3281 26.6358 17.1677 28.0753 18.4394 28.9114C17.1677 29.7474 16.3281 31.187 16.3281 32.8226C16.3281 35.4123 18.4539 37.5 21.0308 37.5C23.6356 37.5 25.7845 35.3895 25.7845 32.7718V28.4621C26.6152 29.2172 27.7187 29.6775 28.9297 29.6775H29.0313C31.6146 29.6775 33.7087 27.5833 33.7087 25.0001C33.7087 23.3644 32.8691 21.9247 31.5973 21.0887C32.8691 20.2527 33.7087 18.8131 33.7087 17.1774C33.7087 14.5941 31.6146 12.5 29.0313 12.5H21.0055Z" fill="white"/>
</svg>
