<svg width="50" height="50" viewBox="0 0 50 50" fill="none" xmlns="http://www.w3.org/2000/svg">
<path fill-rule="evenodd" clip-rule="evenodd" d="M0 0H50V50H0V0ZM12.5 25.2618C12.5 18.381 18.081 12.8 24.9618 12.8C31.8425 12.8 37.4235 18.381 37.5 25.2618C37.5 30.7664 33.9831 35.43 29.0137 37.1119C28.4021 37.1884 28.1728 36.8061 28.1728 36.5003V33.0599C28.1728 31.9131 27.7905 31.1486 27.3318 30.7664C30.0841 30.4606 32.9893 29.4667 32.9893 24.6502C32.9893 23.274 32.4541 22.1272 31.6896 21.2862C31.6957 21.2622 31.704 21.2321 31.7141 21.1961C31.8311 20.7739 32.1707 19.5486 31.5367 17.9988C31.5367 17.9988 30.4664 17.693 28.0963 19.2985C27.1025 19.0691 26.0321 18.9162 24.9618 18.9162C23.8914 18.9162 22.8211 18.9927 21.8272 19.2985C19.4571 17.693 18.3868 17.9988 18.3868 17.9988C17.7112 19.6505 18.1414 20.9336 18.2295 21.1964L18.234 21.2098C17.3929 22.1272 16.9342 23.1976 16.9342 24.5737C16.9342 29.3902 19.8395 30.4606 22.5918 30.7664C22.2859 31.0722 21.9037 31.6073 21.8272 32.4483C21.1391 32.7541 19.3808 33.2893 18.234 31.378C18.234 31.378 17.5459 30.1547 16.3226 30.0783C16.3226 30.0783 15.0994 30.0783 16.2462 30.8428C16.2462 30.8428 17.0872 31.2251 17.6223 32.6777C17.6223 32.6777 18.3868 35.1242 21.8272 34.3596V36.5003C21.8272 36.8061 21.5979 37.1884 20.9863 37.1119C16.0933 35.43 12.5 30.7664 12.5 25.2618Z" fill="white"/>
</svg>
