<svg width="50" height="50" viewBox="0 0 50 50" fill="none" xmlns="http://www.w3.org/2000/svg">
<path fill-rule="evenodd" clip-rule="evenodd" d="M0 0H50V50H0V0ZM30.0122 19.3409C28.7167 18.1023 27.069 17.4716 25.2337 17.4716C21.9781 17.4716 19.2229 19.6704 18.2399 22.6249C17.9899 23.3749 17.8479 24.1761 17.8479 24.9999C17.8479 25.8238 17.9894 26.6249 18.2394 27.3749C19.2224 30.3295 21.9781 32.5284 25.2337 32.5284C26.9156 32.5284 28.3479 32.0853 29.4672 31.3353C30.7911 30.4489 31.6717 29.125 31.9615 27.5625H25.2342V22.7273H37.007C37.1547 23.5455 37.2342 24.3978 37.2342 25.2841C37.2342 29.0909 35.8706 32.2955 33.507 34.4716C31.4388 36.3807 28.6087 37.5 25.2337 37.5C20.3474 37.5 16.1201 34.6988 14.0633 30.6136C13.2167 28.9261 12.7342 27.017 12.7342 24.9999C12.7342 22.9829 13.2172 21.0738 14.0638 19.3863C16.1206 15.3011 20.3474 12.5 25.2337 12.5C28.6031 12.5 31.4326 13.7386 33.5974 15.7557L30.0122 19.3409Z" fill="white"/>
</svg>
