<svg width="1080" height="1080" viewBox="0 0 1080 1080" fill="none" xmlns="http://www.w3.org/2000/svg">
<rect x="15" y="15" width="1050" height="1050" stroke="white" stroke-width="30"/>
<path d="M449 837C417.667 833 391.667 823 371 807C351 790.333 341 772.333 341 753C341 740.333 346.667 729 358 719C369.333 708.333 384.333 703 403 703L475 775C500.333 775 524.667 773.667 548 771C571.333 767.667 591.667 762.333 609 755C627 747.667 641.333 738.333 652 727C662.667 715 668 700.333 668 683C668 639.667 634 618 566 618C548 618 527 619.667 503 623C479 626.333 453.333 631.667 426 639C414 629.667 402 619.667 390 609C378.667 597.667 368.333 585.667 359 573C350.333 560.333 343.333 547 338 533C332.667 518.333 330 502.667 330 486C330 469.333 333.667 454 341 440C348.333 425.333 358.333 413 371 403C384.333 392.333 400 384 418 378C436.667 372 457 369 479 369H615V273H280V209H800V273H692V435H504C476.667 435 454 439.667 436 449C418.667 457.667 410 473.667 410 497C410 520.333 421.333 543 444 565C465.333 559.667 486.667 555.667 508 553C529.333 549.667 551.667 548 575 548C603 548 628 551.667 650 559C672 566.333 690.333 576.333 705 589C719.667 601 730.667 615.333 738 632C746 648 750 665 750 683C750 707.667 744 729.333 732 748C720 766.667 703.667 782.333 683 795C662.333 807.667 637.667 817.667 609 825C580.333 832.333 549.667 837 517 839L632 942L570 990L449 837Z" fill="white"/>
</svg>
